<?xml version="1.0" encoding="UTF-8"?>
<svg version="1.1" xmlns="http://www.w3.org/2000/svg" width="744" height="596">
<path d="M0 0 C0 186.45 0 372.9 0 565 C-15.73391926 562.08631125 -31.46315696 559.17284614 -47.17247009 556.13278198 C-48.33659864 555.90759762 -49.5007272 555.68241325 -50.70013237 555.45040512 C-51.90123713 555.21798237 -53.10234188 554.98555962 -54.33984375 554.74609375 C-56.26335725 554.37434172 -58.18687089 554.00259041 -60.11039311 553.63088346 C-68.34362461 552.03972034 -76.57621774 550.44526912 -84.80865097 548.84998178 C-86.94285741 548.43646196 -89.07709157 548.02308552 -91.21133423 547.60975266 C-131.9976574 539.71047152 -172.76494754 531.72277213 -213.5 523.5625 C-214.56884808 523.34847912 -215.63769615 523.13445824 -216.73893356 522.91395187 C-223.75359308 521.5091877 -230.76765272 520.10146369 -237.78125 518.69140625 C-238.66368441 518.5142017 -239.54611881 518.33699715 -240.45529366 518.15442276 C-242.91896923 517.65938365 -245.3823812 517.16305527 -247.84570312 516.66625977 C-248.54605651 516.52565345 -249.24640989 516.38504713 -249.96798611 516.24018002 C-254.99333577 515.22431295 -259.9983945 514.12670991 -265 513 C-265.11676497 495.72809666 -265.20495443 478.45631636 -265.25906086 461.18410873 C-265.28485041 453.16443443 -265.32001493 445.14500525 -265.37719727 437.12548828 C-265.42700968 430.13623621 -265.45928556 423.14716166 -265.47044247 416.15773702 C-265.47696505 412.45626049 -265.49230943 408.75529182 -265.52865028 405.05397797 C-265.56887693 400.92345078 -265.56995085 396.79380829 -265.56762695 392.66308594 C-265.58560333 391.43381882 -265.60357971 390.2045517 -265.62210083 388.93803406 C-265.57143996 380.64913698 -265.57143996 380.64913698 -262.66517639 377.34771729 C-261.78566818 376.90297058 -260.90615997 376.45822388 -260 376 C-258.94055176 375.26523437 -257.88110352 374.53046875 -256.78955078 373.7734375 C-255.59313329 372.97147339 -254.39496922 372.17211041 -253.1953125 371.375 C-252.5531076 370.94622559 -251.91090271 370.51745117 -251.24923706 370.07568359 C-249.89689443 369.17367034 -248.54378198 368.27281029 -247.18994141 367.37304688 C-245.13603539 366.00733779 -243.08544982 364.6367496 -241.03515625 363.265625 C-239.71373879 362.38512076 -238.39213037 361.50490303 -237.0703125 360.625 C-236.46591339 360.22071777 -235.86151428 359.81643555 -235.23880005 359.39990234 C-224.07870492 352 -224.07870492 352 -221 352 C-219.73212767 365.19492911 -219.77702923 378.40527441 -219.68359375 391.6484375 C-219.66298637 394.11707883 -219.64198901 396.58571694 -219.62062073 399.05435181 C-219.56579041 405.50843672 -219.51621123 411.96255138 -219.46777344 418.41668701 C-219.41727083 425.02000533 -219.36173586 431.62328119 -219.30664062 438.2265625 C-219.19953759 451.15100505 -219.09781788 464.07548401 -219 477 C-218.28163939 477.12977674 -217.56327879 477.25955349 -216.82314968 477.39326286 C-211.70146261 478.32102427 -206.58303527 479.2583406 -201.47485352 480.25830078 C-200.30226486 480.48737625 -199.12967621 480.71645172 -197.92155457 480.95246887 C-196.04419365 481.32017647 -196.04419365 481.32017647 -194.12890625 481.6953125 C-192.04565914 482.1022699 -189.9623482 482.5088996 -187.8790369 482.9155283 C-185.64904401 483.35080989 -183.41909568 483.78631933 -181.18914795 484.22183228 C-151.70356603 489.9788929 -122.20337322 495.65727662 -92.69117355 501.27626801 C-89.87676821 501.81216331 -87.06241841 502.3483495 -84.24807739 502.88458252 C-79.80465346 503.73108288 -75.36106135 504.57669459 -70.91731834 505.42151833 C-69.27776629 505.73327251 -67.63825047 506.04521738 -65.99877357 506.35736656 C-63.74914928 506.78556094 -61.4993568 507.21286001 -59.24951172 507.63989258 C-57.98775116 507.87968338 -56.7259906 508.11947418 -55.42599487 508.36653137 C-52.29031834 508.94631995 -49.14544027 509.47575995 -46 510 C-45.67 403.41 -45.34 296.82 -45 187 C-53.96386878 192.69852468 -53.96386878 192.69852468 -62.82421875 198.5390625 C-69.01734235 202.68607274 -75.23211056 206.79932014 -81.45703125 210.8984375 C-82.37853973 211.50536438 -83.30004822 212.11229126 -84.2494812 212.73760986 C-88.05504547 215.24358007 -91.86109514 217.74881239 -95.66723633 220.25390625 C-107.52555349 228.05963868 -119.36698793 235.88925152 -131.17050171 243.77764893 C-133.84143939 245.56219476 -136.51446165 247.34360246 -139.1875 249.125 C-140.12335938 249.74890625 -141.05921875 250.3728125 -142.0234375 251.015625 C-232.59765625 311.3984375 -232.59765625 311.3984375 -234.44433594 312.62939453 C-235.69128104 313.46079991 -236.93802543 314.29250641 -238.18457031 315.12451172 C-241.49726623 317.33496476 -244.81384341 319.53924934 -248.13671875 321.734375 C-256.63094288 327.35644448 -265.03077548 333.09487232 -273.375 338.9375 C-280.93778715 344.22079562 -288.54010346 349.43327463 -296.25 354.5 C-297.08966309 355.0580835 -297.92932617 355.61616699 -298.79443359 356.19116211 C-299.95579834 356.94731812 -299.95579834 356.94731812 -301.140625 357.71875 C-301.81641602 358.16154297 -302.49220703 358.60433594 -303.18847656 359.06054688 C-305 360 -305 360 -308 360 C-314.31841363 317.92416496 -314.31841363 317.92416496 -306.33709717 305.38812256 C-297.58995082 295.26214172 -284.82143135 289.23526571 -272.96435547 283.50292969 C-265.84863548 280.02061195 -259.4704026 275.53760632 -253 271 C-251.00344408 269.66151495 -249.0040108 268.32729744 -247 267 C-246.0409375 266.360625 -245.081875 265.72125 -244.09375 265.0625 C-239.40625 261.9375 -234.71875 258.8125 -230.03125 255.6875 C-229.08862305 255.05871948 -229.08862305 255.05871948 -228.12695312 254.41723633 C-226.60049268 253.40012167 -225.07303077 252.38450939 -223.54492188 251.36987305 C-217.33320351 247.24012213 -211.14575366 243.07596893 -204.96875 238.89453125 C-184.02820321 224.72365417 -163.0185561 210.66847037 -141.87109375 196.80786133 C-133.42462738 191.26742261 -125.01890499 185.68283154 -116.71156311 179.93556213 C-110.4733113 175.62214412 -104.16689128 171.41515223 -97.84594727 167.22418213 C-94.77535404 165.18784804 -91.70813121 163.14644889 -88.640625 161.10546875 C-87.73500824 160.50295792 -87.73500824 160.50295792 -86.81109619 159.88827515 C-85.58360811 159.07154842 -84.35617108 158.25474497 -83.12878418 157.43786621 C-81.85326228 156.5889824 -80.5776235 155.7402742 -79.30187988 154.89172363 C-70.27499681 148.88553134 -61.28343859 142.83416445 -52.40722656 136.60620117 C-47.21448911 133 -47.21448911 133 -45 133 C-45 106.6 -45 80.2 -45 53 C-54.57 54.98 -64.14 56.96 -74 59 C-78.95467283 60.00636787 -83.90925622 61.01025278 -88.8671875 62 C-90.07351837 62.24154816 -91.27984924 62.48309631 -92.5227356 62.73196411 C-96.30659017 63.48915027 -100.09075671 64.24475914 -103.875 65 C-105.20378057 65.26541924 -106.53255655 65.53086143 -107.86132812 65.79632568 C-125.38843252 69.29734915 -142.919036 72.77505467 -160.47460938 76.13085938 C-165.22431998 77.04110571 -169.97176729 77.96296914 -174.71936035 78.88418579 C-179.52351809 79.81605994 -184.3281389 80.74553334 -189.1328125 81.67474365 C-191.53207472 82.13922015 -193.93116537 82.60458378 -196.33007812 83.07086182 C-199.69351073 83.72433442 -203.05760688 84.37428209 -206.421875 85.0234375 C-207.44528992 85.2231012 -208.46870483 85.42276489 -209.52313232 85.628479 C-210.93625702 85.90011871 -210.93625702 85.90011871 -212.37792969 86.17724609 C-213.61334503 86.41657364 -213.61334503 86.41657364 -214.87371826 86.66073608 C-217 87 -217 87 -220 87 C-219.99777939 87.98129883 -219.99555878 88.96259766 -219.99327087 89.97363281 C-219.97268695 99.38199439 -219.95786269 108.7903512 -219.94818783 118.19873047 C-219.94304619 123.03158532 -219.9361149 127.86442151 -219.92456055 132.69726562 C-219.90153434 142.86697033 -219.91155643 153.03509289 -219.98329735 163.2046051 C-220.01165821 168.22906754 -219.97027793 173.24503466 -219.85265636 178.26815796 C-219.79180409 181.22366179 -219.7774041 184.17820704 -219.77334785 187.13427734 C-219.75460427 189.11378245 -219.67484644 191.09242138 -219.59275818 193.0703125 C-219.62101697 198.47399907 -219.75228513 201.67658833 -223.55384827 205.70878601 C-226.61072663 208.02967471 -229.70645024 210.0335739 -233 212 C-234.92116693 213.32776176 -236.83531058 214.6658192 -238.73828125 216.01953125 C-240.59437427 217.28675898 -242.45243639 218.5511076 -244.3125 219.8125 C-245.24900391 220.45380859 -246.18550781 221.09511719 -247.15039062 221.75585938 C-260.73459314 231 -260.73459314 231 -264 231 C-264 171.6 -264 112.2 -264 51 C-250.49916657 47.62479164 -250.49916657 47.62479164 -244.19970703 46.36865234 C-243.50512768 46.22933383 -242.81054832 46.09001532 -242.09492111 45.94647503 C-239.81642771 45.49019591 -237.53714003 45.03802966 -235.2578125 44.5859375 C-233.60616427 44.25613063 -231.95456447 43.92608118 -230.30300903 43.59580994 C-225.84347177 42.70484258 -221.38319953 41.81760878 -216.92274475 40.93124771 C-213.14645331 40.18044531 -209.37055268 39.42768743 -205.59464264 38.67496967 C-194.69774783 36.50281579 -183.79969179 34.33653253 -172.90124512 32.17218018 C-168.11088436 31.22080802 -163.32071805 30.26846163 -158.53063583 29.31568813 C-132.69372012 24.1766505 -106.85101098 19.06767398 -81 14 C-80.11793381 13.82700882 -79.23586761 13.65401764 -78.32707214 13.4757843 C-67.04308267 11.26299486 -55.7570961 9.06086148 -44.46765137 6.87606812 C-41.26983933 6.25703216 -38.07269306 5.63472225 -34.87609863 5.00942993 C-31.17719542 4.28613231 -27.47695702 3.57011924 -23.77553177 2.85984421 C-21.79645731 2.47831808 -19.8187762 2.08958599 -17.84115601 1.70059204 C-16.65430206 1.47447235 -15.46744812 1.24835266 -14.24462891 1.01538086 C-13.22495026 0.81794785 -12.20527161 0.62051483 -11.1546936 0.417099 C-7.4659654 -0.07060758 -3.72082967 0 0 0 Z " fill="#000000" transform="translate(348,15)"/>
<path d="M0 0 C7.33398216 0.54332119 14.44976451 1.50931433 21.66015625 2.94140625 C22.68361145 3.13999237 23.70706665 3.33857849 24.76153564 3.54318237 C28.19624166 4.21101534 31.62934681 4.8867332 35.0625 5.5625 C37.57632435 6.05328551 40.09024351 6.54358557 42.60424805 7.03344727 C47.395336 7.96751583 52.18595159 8.90395762 56.9761095 9.84278393 C66.01605551 11.61442695 75.05875624 13.37160179 84.10240746 15.1242218 C123.09551111 22.68256496 162.06312969 30.36704121 201.01363754 38.14189529 C204.35656353 38.80882185 207.6996933 39.47471798 211.0428772 40.14035034 C216.32076956 41.19142419 221.59802915 42.24562006 226.87481499 43.30223465 C228.8188421 43.69108741 230.76305676 44.07900391 232.70747566 44.46589279 C242.53480748 46.42223764 252.31538856 48.41260907 262 51 C263.30209298 74.52368898 263.15357037 98.0614214 263.13037109 121.61279297 C263.12474779 127.39114092 263.12800535 133.169442 263.13382339 138.94778824 C263.15978555 169.64398497 262.77780193 200.31369215 262 231 C258.93454651 229.8398574 256.18923931 228.62560499 253.46655273 226.80102539 C252.81915634 226.37040298 252.17175995 225.93978058 251.50474548 225.49610901 C250.82126541 225.0346196 250.13778534 224.57313019 249.43359375 224.09765625 C248.35973167 223.38010414 248.35973167 223.38010414 247.26417542 222.64805603 C244.98570092 221.12383966 242.71166481 219.59313692 240.4375 218.0625 C238.90456382 217.03671034 237.37136336 216.0113155 235.83789062 214.98632812 C234.36955278 214.00296078 232.90144595 213.01924837 231.43359375 212.03515625 C230.74808945 211.57569107 230.06258514 211.11622589 229.35630798 210.64283752 C228.38994164 209.99217567 228.38994164 209.99217567 227.40405273 209.32836914 C226.84177475 208.95023575 226.27949677 208.57210236 225.70018005 208.18251038 C225.13912064 207.79228195 224.57806122 207.40205353 224 207 C223.28105057 206.58559158 222.56210114 206.17118317 221.82136536 205.74421692 C220 204 220 204 219.48101807 201.20864868 C219.47213562 200.07196747 219.46325317 198.93528625 219.45410156 197.76416016 C219.43438797 196.46668854 219.41467438 195.16921692 219.3943634 193.83242798 C219.39269583 192.40130658 219.39146263 190.97018462 219.390625 189.5390625 C219.37555005 188.05006146 219.35876674 186.56107684 219.34037781 185.07211304 C219.29610785 181.08098691 219.27638791 177.09008494 219.26157761 173.09875488 C219.24234272 168.98889123 219.20093681 164.87925025 219.16235352 160.76953125 C219.07747535 151.17977719 219.03377934 141.59005127 219 132 C218.99481453 130.65246565 218.98958771 129.30493146 218.98431396 127.95739746 C218.93326708 114.30467704 218.92749826 100.65263608 219 87 C217.29662476 86.85534302 217.29662476 86.85534302 215.55883789 86.70776367 C207.97783208 85.85931597 200.52715085 84.19504925 193.05859375 82.67578125 C191.36123489 82.33364979 189.66379419 81.99192411 187.96627808 81.65057373 C184.34304899 80.9213989 180.72025932 80.19009477 177.09780884 79.45706177 C167.51770092 77.51885774 157.9346207 75.59542905 148.3515625 73.671875 C147.37898561 73.47654238 146.40640873 73.28120975 145.40435982 73.07995796 C125.05582935 68.99442385 104.68843489 65.00882073 84.3125 61.0625 C83.54404125 60.91364475 82.7755825 60.76478951 81.98383713 60.61142349 C72.4621468 58.76714047 72.4621468 58.76714047 62.93966675 56.92694092 C56.28812446 55.64219152 49.64062301 54.34010908 43 53 C43.10814933 61.65892026 43.22090504 70.31776532 43.33933926 78.97655106 C43.39420855 82.99833996 43.44756547 87.02013643 43.49731445 91.04199219 C43.54549585 94.9324161 43.5978479 98.82276467 43.65294075 102.71309662 C43.67312386 104.18801719 43.69187222 105.66295821 43.70907402 107.13791656 C43.74908325 110.53224502 43.80984533 113.92215092 43.90757751 117.31556702 C43.96691106 119.68090567 43.97563808 122.04835898 43.92066956 124.4138031 C43.95338898 130.17362887 43.95338898 130.17362887 46.68629456 135.06015015 C49.07638491 136.993606 51.51609428 138.56100391 54.16015625 140.12890625 C55.0974205 140.72952377 56.03468475 141.3301413 57.00035095 141.94895935 C59.99858815 143.85886481 63.02791138 145.71102171 66.0625 147.5625 C68.04469392 148.80807547 70.02454022 150.05739517 72.00195312 151.31054688 C75.86101004 153.75259598 79.73044167 156.17680903 83.60693359 158.59106445 C90.3487427 162.81751645 96.88295153 167.32274392 103.39962769 171.88552856 C106.97752849 174.37711643 110.61557473 176.7795312 114.25 179.1875 C115.76823007 180.19661323 117.28645923 181.20572781 118.8046875 182.21484375 C119.52108398 182.69034668 120.23748047 183.16584961 120.97558594 183.65576172 C123.77800289 185.51660442 126.57657209 187.38316363 129.375 189.25 C130.77878906 190.18585938 130.77878906 190.18585938 132.2109375 191.140625 C141 197 141 197 143.86938477 198.91357422 C145.7458425 200.16415581 147.6229147 201.41381722 149.5012207 202.66162109 C158.49758527 208.64350141 167.44662672 214.69505046 176.39929199 220.74203491 C194.68547495 233.09127285 213.01099482 245.37930797 231.38598633 257.59594727 C235.88112402 260.58511776 240.37221694 263.58035234 244.86297607 266.57609558 C248.67566377 269.11902364 252.49297677 271.65485043 256.3125 274.1875 C260.64315828 277.07460552 264.92263544 280.02363417 269.17578125 283.0234375 C272.05194171 285.03635201 274.94554311 287.02187775 277.84301758 289.00390625 C304.68973175 307.37946349 304.68973175 307.37946349 307 312 C307.98309351 317.86184542 308.14915027 323.75351188 308.1328125 329.68359375 C308.13424759 330.85596336 308.13424759 330.85596336 308.13571167 332.05201721 C308.13638602 333.6846627 308.13458436 335.31731098 308.13037109 336.94995117 C308.12496086 339.45562647 308.13036724 341.96112667 308.13671875 344.46679688 C308.13605883 346.05989623 308.13477945 347.65299547 308.1328125 349.24609375 C308.13483673 349.99499374 308.13686096 350.74389374 308.13894653 351.51548767 C308.11499574 356.77000852 308.11499574 356.77000852 307 359 C303.43712571 358.44109494 300.91097052 357.57712978 297.8828125 355.62890625 C297.1196875 355.14276855 296.3565625 354.65663086 295.5703125 354.15576172 C294.76335937 353.62998535 293.95640625 353.10420898 293.125 352.5625 C291.84882812 351.74289795 291.84882812 351.74289795 290.546875 350.90673828 C283.73236941 346.51593541 276.97725214 342.0383306 270.25146484 337.51318359 C265.61168365 334.39484008 260.96225724 331.290941 256.3125 328.1875 C255.75715576 327.81668304 255.20181152 327.44586609 254.62963867 327.06381226 C246.76596178 321.81503778 238.88117142 316.59912533 230.98046875 311.40625 C227.32024698 309.00009964 223.66004028 306.59392642 220 304.1875 C218.61152863 303.27461716 218.61152863 303.27461716 217.19500732 302.34329224 C200.7191071 291.50478429 184.34480253 280.52066871 168.02148438 269.45385742 C158.37985638 262.89344333 158.37985638 262.89344333 148.58984375 256.55859375 C139.61631078 250.92051751 130.90057667 244.8765496 122.125 238.9375 C118.44069982 236.44573255 114.75578745 233.95487331 111.0703125 231.46484375 C110.1540358 230.84577652 109.23775909 230.22670929 108.29371643 229.58888245 C99.3789805 223.57122376 90.42939489 217.6064188 81.47497559 211.64804077 C77.58065744 209.05488586 73.6908252 206.4550289 69.80078125 203.85546875 C67.67611879 202.43662764 65.55133137 201.01797385 63.42651367 199.59936523 C61.98289736 198.6352316 60.53954981 197.67069547 59.09643555 196.70581055 C56.95692727 195.2754638 54.81645533 193.84656994 52.67578125 192.41796875 C52.03014725 191.98582565 51.38451324 191.55368256 50.71931458 191.10844421 C47.44364643 188.91266071 47.44364643 188.91266071 44 187 C44 293.59 44 400.18 44 510 C58.88013571 507.51997738 73.67680703 504.98331942 88.45703125 502.0234375 C90.32589627 501.65213824 92.19483035 501.28118645 94.06382751 500.91055298 C98.97447564 499.93588597 103.88426375 498.95695539 108.79386902 497.97705078 C113.8799824 496.96265102 118.96685344 495.95206675 124.05371094 494.94140625 C126.0900575 494.53680486 128.12640394 494.13220281 130.16275024 493.7276001 C131.16485157 493.52850288 132.1669529 493.32940567 133.19942093 493.12427521 C136.2077589 492.5263982 139.21599561 491.92801396 142.22421265 491.32952881 C153.49840368 489.08727272 164.77550059 486.86108499 176.05859375 484.6640625 C177.274366 484.42714691 178.49013824 484.19023132 179.74275208 483.94613647 C185.11786505 482.89942798 190.49365504 481.85636197 195.87036133 480.81787109 C197.70005251 480.46201668 199.52972517 480.10606696 201.359375 479.75 C202.54502296 479.52311996 202.54502296 479.52311996 203.75462341 479.29165649 C208.2501615 478.41356965 212.65394681 477.46038621 217 476 C218.18543979 473.62912042 218.19342071 472.06056522 218.29663086 469.41113281 C218.33567032 468.40967224 218.37470978 467.40821167 218.41493225 466.37640381 C218.45202805 465.2467218 218.48912384 464.11703979 218.52734375 462.953125 C218.56866928 461.74078186 218.60999481 460.52843872 218.65257263 459.27935791 C219.28206722 439.54081141 219.35330823 419.78544838 219.53222656 400.03900146 C219.58327054 394.49342278 219.63851511 388.94788592 219.69335938 383.40234375 C219.79958089 372.60159855 219.90130318 361.80081641 220 351 C225.0526189 353.75536221 230.0175602 356.55156321 234.8125 359.7421875 C236.33230469 360.75345703 236.33230469 360.75345703 237.8828125 361.78515625 C238.91148437 362.47480469 239.94015625 363.16445313 241 363.875 C242.02867187 364.55691406 243.05734375 365.23882812 244.1171875 365.94140625 C246.1445405 367.29555424 248.15814412 368.6705449 250.15649414 370.06713867 C252.92456965 372.01477056 252.92456965 372.01477056 255.71655273 373.48950195 C259.69220103 375.89220202 261.65292458 377.59581484 262.78955078 382.19433594 C263.14362798 386.63517105 263.14043091 390.98732236 263.0625 395.4375 C263.0642903 397.19800635 263.07016029 398.95851213 263.07958984 400.71899414 C263.09292037 404.89644764 263.07535753 409.0726607 263.04248047 413.25 C262.98382077 421.66690017 263.02063668 430.08286431 263.0557003 438.49981499 C263.11270645 452.81097817 263.15278364 467.1224832 263.13488579 481.4337616 C263.13352331 483.05601449 263.13384494 484.67826983 263.13600349 486.30052185 C263.16033877 507.42209166 263.16033877 507.42209166 262 512 C259.28651456 513.8089903 258.13287688 514.34662645 255.09283447 514.94354248 C254.29957795 515.10272502 253.50632143 515.26190756 252.68902683 515.42591381 C251.82001712 515.59312593 250.9510074 515.76033804 250.05566406 515.93261719 C249.13394126 516.1155322 248.21221846 516.29844721 247.26256466 516.4869051 C244.18148137 517.0966573 241.0985942 517.69673701 238.015625 518.296875 C235.83682294 518.72608825 233.65813965 519.15590479 231.47956848 519.58628845 C225.62042468 520.74207454 219.75969419 521.8896196 213.89863968 523.03567123 C207.81354935 524.22700703 201.72995932 525.42595272 195.64624023 526.62426758 C185.92945358 528.53732459 176.21188144 530.44633534 166.49365234 532.35205078 C154.97971411 534.61008309 143.46765965 536.87750448 131.95703125 539.15234375 C128.88403725 539.75954197 125.81103714 540.36670926 122.73803711 540.97387695 C122.00998902 541.11773677 121.28194094 541.26159658 120.53183079 541.40981579 C93.2812259 546.79365226 66.02618811 552.15559427 38.76394653 557.48017883 C33.95002244 558.42090172 29.13728958 559.3672262 24.32633972 560.32304382 C21.28078605 560.92738243 18.23402202 561.52556501 15.1875 562.125 C14.19129639 562.32552979 13.19509277 562.52605957 12.16870117 562.73266602 C7.70559684 563.60453391 3.57518111 564.22686848 -1 564 C-2.58819116 560.82361768 -2.13604135 557.39825499 -2.12584114 553.91030025 C-2.12729458 553.05991384 -2.12874802 552.20952743 -2.13024551 551.33337173 C-2.13392701 548.45212433 -2.13040902 545.57092912 -2.12698364 542.68968201 C-2.12813469 540.61510457 -2.1297221 538.54052735 -2.13171089 536.46595055 C-2.13590812 530.73885965 -2.13381157 525.01178529 -2.13072467 519.28469431 C-2.12847172 513.11536266 -2.13195011 506.94603396 -2.13470459 500.77670288 C-2.13890766 489.3687852 -2.13852361 477.9608743 -2.13579312 466.55295679 C-2.1332767 455.98637983 -2.13262119 445.41980481 -2.13381577 434.85322762 C-2.13389215 434.152053 -2.13396854 433.45087839 -2.13404724 432.72845606 C-2.13435861 429.88157929 -2.13467701 427.03470253 -2.135007 424.18782576 C-2.138071 397.43335139 -2.13528747 370.67888037 -2.1299101 343.92440652 C-2.12518833 320.25274381 -2.12556797 296.58108649 -2.13037109 272.90942383 C-2.13575747 246.27456027 -2.13782942 219.6396997 -2.13475883 193.00483567 C-2.13443818 190.1485949 -2.13412534 187.29235413 -2.13381577 184.43611336 C-2.13373669 183.73292019 -2.13365761 183.02972702 -2.13357614 182.30522497 C-2.13244923 171.7884021 -2.13374947 161.27158141 -2.13629532 150.75475883 C-2.13919106 138.73309586 -2.13827168 126.71144056 -2.13301457 114.68977778 C-2.13042807 108.57751066 -2.12928359 102.46525428 -2.13266373 96.35298729 C-2.1449416 72.01321179 -2.02179918 47.68335336 -1.55441284 23.34754944 C-1.53499375 22.27124055 -1.51557465 21.19493166 -1.4955671 20.08600735 C-1.43987715 17.08069167 -1.37725672 14.0756148 -1.31185722 11.07049656 C-1.29555084 10.17569683 -1.27924446 9.28089711 -1.26244394 8.35898224 C-1.11539239 2.23078478 -1.11539239 2.23078478 0 0 Z " fill="#000000" transform="translate(394,15)"/>
</svg>
